Coordinates
version=1
nRows=12
nColumns=34
inDegrees=no

Units are S.I. units (second, meters, Newtons, ...)
If the header above contains a line with 'inDegrees', this indicates whether rotational values are in degrees (yes) or radians (no).

endheader
time	pelvis_tilt	pelvis_list	pelvis_rotation	pelvis_tx	pelvis_ty	pelvis_tz	hip_flexion_r	hip_adduction_r	hip_rotation_r	knee_angle_r	ankle_angle_r	subtalar_angle_r	mtp_angle_r	hip_flexion_l	hip_adduction_l	hip_rotation_l	knee_angle_l	ankle_angle_l	subtalar_angle_l	mtp_angle_l	lumbar_extension	lumbar_bending	lumbar_rotation	arm_flex_r	arm_add_r	arm_rot_r	elbow_flex_r	pro_sup_r	arm_flex_l	arm_add_l	arm_rot_l	elbow_flex_l	pro_sup_l
1.83	-0.318833	0.0353916	-0.201626	-0.0693186	1.36478	-0.616798	0.343587	-0.136089	-0.41421	0.158292	-0.735635	0.320535	-0.129736	0.311777	-0.0726479	-0.351999	0.0893502	-0.785819	0.113983	-0.129736	-0.116852	-0.0306322	0.186174	-3.16605	-1.23497	2.1409	1.7489	1.79296	1.69021	-0.876851	0.889577	2.13129	1.56456
1.84	-0.299307	0.0271296	-0.201316	-0.0691818	1.38638	-0.617395	0.312255	-0.123671	-0.371344	0.133069	-0.776311	0.26297	-0.129736	0.28836	-0.0740062	-0.355933	0.0714549	-0.781253	0.110021	-0.129736	-0.147188	-0.0249574	0.169595	2.94746	-1.22759	1.92389	1.69967	1.79331	1.69812	-0.873565	0.863583	2.12642	1.55765
1.85	-0.278823	0.0201974	-0.197585	-0.0684382	1.40719	-0.618289	0.279982	-0.116397	-0.344183	0.112921	-0.758174	0.194974	-0.129736	0.262623	-0.0713525	-0.358759	0.0484649	-0.766726	0.0959635	-0.129736	-0.177248	-0.0204345	0.150092	2.79591	-1.21181	1.72699	1.66061	1.79167	1.70486	-0.869233	0.839651	2.12035	1.55715
1.86	-0.260748	0.0162619	-0.190885	-0.0672979	1.42648	-0.619298	0.25322	-0.114379	-0.334448	0.101084	-0.739985	0.122841	-0.129736	0.241023	-0.0653186	-0.361289	0.0276276	-0.747948	0.077962	-0.129736	-0.202191	-0.0179534	0.124911	2.656	-1.18722	1.54458	1.62536	1.81643	1.71246	-0.869454	0.820776	2.1159	1.56095
1.87	-0.245846	0.014774	-0.18317	-0.0661165	1.4442	-0.620468	0.235029	-0.116307	-0.340801	0.0998127	-0.724927	0.0644967	-0.129736	0.225984	-0.0577807	-0.362984	0.0138313	-0.732065	0.0590853	-0.129736	-0.22234	-0.0162484	0.0931123	2.52697	-1.15081	1.37552	1.59504	1.82915	1.72193	-0.880657	0.806688	2.11907	1.55584
1.88	-0.234512	0.01441	-0.176716	-0.0654307	1.46048	-0.621821	0.226078	-0.119958	-0.35363	0.107259	-0.715466	0.0262874	-0.129736	0.218782	-0.0511087	-0.362941	0.00937488	-0.721433	0.0431839	-0.129736	-0.240006	-0.0144074	0.0659805	2.44413	-1.11231	1.25549	1.5729	1.82771	1.73381	-0.891378	0.795286	2.12424	1.55172
1.89	-0.228302	0.014421	-0.170514	-0.0653558	1.47538	-0.623367	0.225783	-0.123997	-0.364745	0.11897	-0.7114	0.00967997	-0.129736	0.220841	-0.0462643	-0.35737	0.0128504	-0.716879	0.0318681	-0.129736	-0.253651	-0.0114358	0.042585	2.39281	-1.07523	1.16954	1.55754	1.82451	1.74832	-0.900501	0.787554	2.13006	1.54865
1.9	-0.228031	0.0145352	-0.163106	-0.0655251	1.48892	-0.625022	0.232098	-0.127668	-0.370254	0.130552	-0.708947	0.0137657	-0.129736	0.231435	-0.0431187	-0.344053	0.0203079	-0.717929	0.0259433	-0.129736	-0.261283	-0.0068913	0.0208983	2.36063	-1.04111	1.10715	1.54839	1.82194	1.76326	-0.908347	0.783094	2.13558	1.55032
1.91	-0.232762	0.0147817	-0.155593	-0.0656975	1.50121	-0.626467	0.242784	-0.130175	-0.368078	0.139501	-0.705559	0.0322999	-0.129736	0.247604	-0.0414615	-0.324584	0.0277813	-0.722375	0.0257343	-0.129736	-0.263063	-0.00164068	-0.000862605	2.33522	-1.00778	1.05611	1.54342	1.81993	1.7787	-0.918877	0.782745	2.14216	1.55455
1.92	-0.240403	0.0147012	-0.150652	-0.0659048	1.51243	-0.627387	0.255886	-0.130156	-0.357408	0.145016	-0.702583	0.0552607	-0.129736	0.265622	-0.0419608	-0.30327	0.0328964	-0.726847	0.0311954	-0.129736	-0.261371	0.00318515	-0.0177152	2.31838	-0.97834	1.01829	1.54206	1.82013	1.79508	-0.927655	0.78648	2.14782	1.55617
1.93	-0.248819	0.0137951	-0.14916	-0.0661501	1.52271	-0.627711	0.269355	-0.127025	-0.340515	0.147178	-0.701983	0.0749836	-0.129736	0.28255	-0.0449728	-0.284239	0.0348701	-0.729423	0.04023	-0.129736	-0.2584	0.00724275	-0.0277191	2.30807	-0.953537	0.989431	1.53943	1.85643	1.81247	-0.931331	0.793704	2.14833	1.56431
1.94	-0.256474	0.0117237	-0.150205	-0.0663071	1.53211	-0.627623	0.28125	-0.12126	-0.321322	0.146589	-0.703051	0.0889977	-0.129736	0.296603	-0.0500927	-0.270484	0.0338184	-0.730268	0.047733	-0.129736	-0.255762	0.0110196	-0.0322861	2.30213	-0.932691	0.969542	1.54139	1.8639	1.82989	-0.930546	0.803009	2.14564	1.56781
